<svg width="252" height="150" viewBox="0 0 252 150" fill="none" xmlns="http://www.w3.org/2000/svg">
<g clip-path="url(#clip0_801_1506)">
<path opacity="0.4" d="M0 0H252V150H0V0Z" fill="#677A9E"/>
<path d="M53 106H13V110H53V106Z" fill="white"/>
<path d="M23 133H13V137H23V133Z" fill="white"/>
<path d="M73 116H13V119H73V116Z" fill="white"/>
<path d="M53 122H13V125H53V122Z" fill="white"/>
<rect opacity="0.15" width="252" height="93" fill="#677A9E"/>
<rect opacity="0.15" x="126" y="93" width="126" height="57" fill="#677A9E"/>
<rect opacity="0.3" x="113" y="48" width="26" height="26" rx="6" fill="#677A9E"/>
<mask id="mask0_801_1506" style="mask-type:alpha" maskUnits="userSpaceOnUse" x="113" y="48" width="26" height="26">
<rect opacity="0.3" x="113" y="48" width="26" height="26" rx="6" fill="#677A9E"/>
</mask>
<g mask="url(#mask0_801_1506)">
<path d="M115 58.1667C115 56.3571 116.348 55 118.145 55C119.942 55 121.29 56.3571 121.29 58.1667C121.29 59.9762 119.942 61.3333 118.145 61.3333C116.348 61.3333 115 59.9762 115 58.1667ZM134.094 58.1667L128.928 66.3095L124.884 61.3333L115 74H146L134.094 58.1667Z" fill="#677A9E"/>
</g>
<rect opacity="0.25" x="242" width="10" height="50" fill="#677A9E"/>
<rect opacity="0.15" x="242" y="50" width="10" height="50" fill="#677A9E"/>
<rect opacity="0.05" x="242" y="100" width="10" height="50" fill="#677A9E"/>
<rect x="246" y="22" width="2" height="5.88235" fill="white"/>
<rect opacity="0.5" x="246" y="72" width="2" height="5.88235" fill="white"/>
<rect opacity="0.5" x="246" y="122" width="2" height="5.88235" fill="white"/>
<rect x="9" y="16.3635" width="18" height="3.27273" fill="white"/>
<rect x="87" y="17" width="12" height="2" fill="white"/>
<rect x="105" y="17" width="12" height="2" fill="white"/>
<rect x="123" y="17" width="12" height="2" fill="white"/>
<rect x="141" y="17" width="12" height="2" fill="white"/>
<rect x="159" y="17" width="12" height="2" fill="white"/>
<rect x="177" y="17" width="12" height="2" fill="white"/>
<rect x="215" y="17.1819" width="6" height="1.63636" fill="white"/>
<rect x="227" y="17.1819" width="6" height="1.63636" fill="white"/>
</g>
<defs>
<clipPath id="clip0_801_1506">
<rect width="252" height="150" fill="white"/>
</clipPath>
</defs>
</svg>
